<svg xmlns="http://www.w3.org/2000/svg" xmlns:xlink="http://www.w3.org/1999/xlink" width="500" zoomAndPan="magnify" viewBox="0 0 375 374.999991" height="500" preserveAspectRatio="xMidYMid meet" version="1.0"><defs><g/><clipPath id="9ab435b6ba"><path d="M 149.292969 155.753906 L 227.292969 155.753906 L 227.292969 224.003906 L 149.292969 224.003906 Z M 149.292969 155.753906 " clip-rule="nonzero"/></clipPath></defs><g fill="#403029" fill-opacity="1"><g transform="translate(94.217365, 201.50293)"><g><path d="M -11.09375 -5.078125 C -11.113281 -5.171875 -11.097656 -5.257812 -11.046875 -5.34375 C -11.003906 -5.4375 -10.941406 -5.503906 -10.859375 -5.546875 L -5.875 -8.453125 C -5.789062 -8.492188 -5.6875 -8.535156 -5.5625 -8.578125 C -5.445312 -8.617188 -5.347656 -8.648438 -5.265625 -8.671875 L -1.65625 -9.1875 C -1.5625 -9.195312 -1.476562 -9.171875 -1.40625 -9.109375 C -1.332031 -9.054688 -1.289062 -8.988281 -1.28125 -8.90625 L -1.078125 -7.515625 C -1.066406 -7.421875 -1.085938 -7.335938 -1.140625 -7.265625 C -1.191406 -7.191406 -1.265625 -7.148438 -1.359375 -7.140625 L -3.0625 -6.890625 L -2.484375 -2.828125 L -0.78125 -3.078125 C -0.6875 -3.085938 -0.601562 -3.066406 -0.53125 -3.015625 C -0.457031 -2.960938 -0.414062 -2.890625 -0.40625 -2.796875 L -0.203125 -1.421875 C -0.191406 -1.328125 -0.210938 -1.242188 -0.265625 -1.171875 C -0.316406 -1.097656 -0.390625 -1.054688 -0.484375 -1.046875 L -4.09375 -0.53125 C -4.175781 -0.507812 -4.28125 -0.503906 -4.40625 -0.515625 C -4.539062 -0.523438 -4.648438 -0.539062 -4.734375 -0.5625 L -10.34375 -1.921875 C -10.425781 -1.941406 -10.503906 -1.988281 -10.578125 -2.0625 C -10.648438 -2.144531 -10.691406 -2.226562 -10.703125 -2.3125 Z M -4.515625 -2.625 L -5.078125 -6.53125 L -8.921875 -4.296875 L -8.84375 -3.65625 Z M -4.515625 -2.625 "/></g></g></g><g fill="#403029" fill-opacity="1"><g transform="translate(92.470147, 187.362749)"><g><path d="M 0.078125 -8.875 L 0.015625 -1.875 C 0.015625 -1.78125 -0.015625 -1.703125 -0.078125 -1.640625 C -0.140625 -1.578125 -0.21875 -1.546875 -0.3125 -1.546875 L -9.921875 -1.625 C -10.015625 -1.625 -10.09375 -1.65625 -10.15625 -1.71875 C -10.21875 -1.78125 -10.25 -1.859375 -10.25 -1.953125 L -10.234375 -3.34375 C -10.234375 -3.425781 -10.203125 -3.5 -10.140625 -3.5625 C -10.078125 -3.632812 -10 -3.671875 -9.90625 -3.671875 L -2.015625 -3.609375 L -1.96875 -8.890625 C -1.96875 -8.984375 -1.9375 -9.054688 -1.875 -9.109375 C -1.8125 -9.171875 -1.734375 -9.203125 -1.640625 -9.203125 L -0.25 -9.1875 C -0.15625 -9.1875 -0.078125 -9.15625 -0.015625 -9.09375 C 0.046875 -9.039062 0.078125 -8.96875 0.078125 -8.875 Z M 0.078125 -8.875 "/></g></g></g><g fill="#403029" fill-opacity="1"><g transform="translate(92.868603, 173.117664)"><g><path d="M -6.96875 -10.390625 C -6.875 -10.378906 -6.800781 -10.335938 -6.75 -10.265625 C -6.707031 -10.203125 -6.691406 -10.125 -6.703125 -10.03125 L -7.578125 -4.5625 L -5.546875 -4.234375 L -4.765625 -9.1875 C -4.742188 -9.269531 -4.695312 -9.335938 -4.625 -9.390625 C -4.550781 -9.453125 -4.472656 -9.476562 -4.390625 -9.46875 L -3 -9.25 C -2.914062 -9.238281 -2.84375 -9.191406 -2.78125 -9.109375 C -2.726562 -9.023438 -2.710938 -8.941406 -2.734375 -8.859375 L -3.515625 -3.90625 L -1.484375 -3.59375 L -0.609375 -9.0625 C -0.597656 -9.15625 -0.554688 -9.222656 -0.484375 -9.265625 C -0.410156 -9.316406 -0.332031 -9.332031 -0.25 -9.3125 L 1.125 -9.09375 C 1.21875 -9.082031 1.289062 -9.039062 1.34375 -8.96875 C 1.394531 -8.90625 1.414062 -8.828125 1.40625 -8.734375 L 0.25 -1.5625 C 0.238281 -1.46875 0.195312 -1.394531 0.125 -1.34375 C 0.0507812 -1.289062 -0.03125 -1.269531 -0.125 -1.28125 L -9.609375 -2.8125 C -9.703125 -2.820312 -9.773438 -2.863281 -9.828125 -2.9375 C -9.878906 -3.007812 -9.898438 -3.09375 -9.890625 -3.1875 L -8.734375 -10.359375 C -8.722656 -10.453125 -8.679688 -10.519531 -8.609375 -10.5625 C -8.535156 -10.613281 -8.453125 -10.632812 -8.359375 -10.625 Z M -6.96875 -10.390625 "/></g></g></g><g fill="#403029" fill-opacity="1"><g transform="translate(95.408555, 159.115142)"><g><path d="M -4.34375 -11.1875 C -4.25 -11.164062 -4.160156 -11.113281 -4.078125 -11.03125 C -3.992188 -10.945312 -3.9375 -10.863281 -3.90625 -10.78125 L -2.8125 -8.0625 L -0.328125 -9.625 C -0.253906 -9.675781 -0.160156 -9.710938 -0.046875 -9.734375 C 0.0664062 -9.753906 0.164062 -9.75 0.25 -9.71875 L 2.546875 -8.984375 C 2.628906 -8.960938 2.6875 -8.90625 2.71875 -8.8125 C 2.757812 -8.726562 2.769531 -8.648438 2.75 -8.578125 L 2.3125 -7.234375 C 2.289062 -7.140625 2.238281 -7.070312 2.15625 -7.03125 C 2.082031 -7 2.003906 -6.992188 1.921875 -7.015625 L 0.546875 -7.453125 C 0.460938 -7.484375 0.363281 -7.488281 0.25 -7.46875 C 0.132812 -7.457031 0.0351562 -7.429688 -0.046875 -7.390625 L -2 -6.109375 L -1.140625 -3.953125 C -1.097656 -3.867188 -1.035156 -3.785156 -0.953125 -3.703125 C -0.867188 -3.617188 -0.785156 -3.5625 -0.703125 -3.53125 L 0.671875 -3.09375 C 0.753906 -3.070312 0.8125 -3.023438 0.84375 -2.953125 C 0.882812 -2.878906 0.894531 -2.796875 0.875 -2.703125 L 0.4375 -1.375 C 0.40625 -1.28125 0.351562 -1.210938 0.28125 -1.171875 C 0.207031 -1.140625 0.128906 -1.132812 0.046875 -1.15625 L -2.25 -1.890625 C -2.332031 -1.921875 -2.414062 -1.972656 -2.5 -2.046875 C -2.59375 -2.117188 -2.648438 -2.195312 -2.671875 -2.28125 L -3.796875 -5 L -6.25 -3.4375 C -6.332031 -3.382812 -6.425781 -3.351562 -6.53125 -3.34375 C -6.644531 -3.332031 -6.75 -3.335938 -6.84375 -3.359375 L -9.125 -4.09375 C -9.207031 -4.125 -9.269531 -4.175781 -9.3125 -4.25 C -9.363281 -4.320312 -9.375 -4.40625 -9.34375 -4.5 L -8.90625 -5.828125 C -8.882812 -5.921875 -8.832031 -5.984375 -8.75 -6.015625 C -8.664062 -6.054688 -8.582031 -6.0625 -8.5 -6.03125 L -7.125 -5.59375 C -7.039062 -5.570312 -6.9375 -5.566406 -6.8125 -5.578125 C -6.695312 -5.597656 -6.609375 -5.632812 -6.546875 -5.6875 L -4.5625 -6.921875 L -5.453125 -9.125 C -5.472656 -9.195312 -5.523438 -9.273438 -5.609375 -9.359375 C -5.703125 -9.441406 -5.789062 -9.492188 -5.875 -9.515625 L -7.25 -9.953125 C -7.332031 -9.984375 -7.394531 -10.035156 -7.4375 -10.109375 C -7.476562 -10.179688 -7.488281 -10.265625 -7.46875 -10.359375 L -7.03125 -11.703125 C -7.007812 -11.773438 -6.957031 -11.835938 -6.875 -11.890625 C -6.789062 -11.941406 -6.707031 -11.953125 -6.625 -11.921875 Z M -4.34375 -11.1875 "/></g></g></g><g fill="#403029" fill-opacity="1"><g transform="translate(100.028697, 145.637295)"><g><path d="M -6.25 -10.484375 C -6.207031 -10.566406 -6.144531 -10.628906 -6.0625 -10.671875 C -5.976562 -10.722656 -5.882812 -10.75 -5.78125 -10.75 L -0.03125 -10.28125 C 0.0507812 -10.28125 0.15625 -10.265625 0.28125 -10.234375 C 0.40625 -10.203125 0.507812 -10.164062 0.59375 -10.125 L 3.859375 -8.5 C 3.941406 -8.457031 3.992188 -8.390625 4.015625 -8.296875 C 4.046875 -8.210938 4.039062 -8.132812 4 -8.0625 L 3.375 -6.796875 C 3.332031 -6.710938 3.269531 -6.65625 3.1875 -6.625 C 3.101562 -6.59375 3.019531 -6.597656 2.9375 -6.640625 L 1.40625 -7.40625 L -0.421875 -3.734375 L 1.109375 -2.96875 C 1.191406 -2.925781 1.25 -2.863281 1.28125 -2.78125 C 1.3125 -2.695312 1.304688 -2.613281 1.265625 -2.53125 L 0.640625 -1.28125 C 0.597656 -1.195312 0.535156 -1.140625 0.453125 -1.109375 C 0.367188 -1.085938 0.285156 -1.097656 0.203125 -1.140625 L -3.0625 -2.765625 C -3.144531 -2.804688 -3.234375 -2.863281 -3.328125 -2.9375 C -3.429688 -3.019531 -3.515625 -3.09375 -3.578125 -3.15625 L -7.421875 -7.453125 C -7.492188 -7.515625 -7.53125 -7.597656 -7.53125 -7.703125 C -7.539062 -7.804688 -7.523438 -7.898438 -7.484375 -7.984375 Z M -2.234375 -4.71875 L -0.46875 -8.265625 L -4.890625 -8.609375 L -5.1875 -8.015625 Z M -2.234375 -4.71875 "/></g></g></g><g fill="#403029" fill-opacity="1"><g transform="translate(106.625082, 133.008537)"><g><path d="M -3.953125 -11.671875 C -4.035156 -11.722656 -4.082031 -11.789062 -4.09375 -11.875 C -4.113281 -11.957031 -4.097656 -12.039062 -4.046875 -12.125 L -3.234375 -13.265625 C -3.179688 -13.335938 -3.109375 -13.382812 -3.015625 -13.40625 C -2.929688 -13.425781 -2.847656 -13.410156 -2.765625 -13.359375 L 5.09375 -7.828125 C 5.164062 -7.773438 5.207031 -7.703125 5.21875 -7.609375 C 5.238281 -7.515625 5.222656 -7.429688 5.171875 -7.359375 L 4.359375 -6.21875 C 4.304688 -6.132812 4.234375 -6.085938 4.140625 -6.078125 C 4.054688 -6.066406 3.976562 -6.085938 3.90625 -6.140625 L 1.046875 -8.15625 L -4.34375 -6.890625 L 1.546875 -2.765625 C 1.617188 -2.710938 1.660156 -2.640625 1.671875 -2.546875 C 1.691406 -2.460938 1.675781 -2.382812 1.625 -2.3125 L 0.828125 -1.171875 C 0.773438 -1.097656 0.703125 -1.050781 0.609375 -1.03125 C 0.523438 -1.019531 0.445312 -1.039062 0.375 -1.09375 L -7.484375 -6.625 C -7.566406 -6.675781 -7.613281 -6.742188 -7.625 -6.828125 C -7.644531 -6.921875 -7.628906 -7.003906 -7.578125 -7.078125 L -6.78125 -8.21875 C -6.726562 -8.289062 -6.648438 -8.359375 -6.546875 -8.421875 C -6.453125 -8.492188 -6.359375 -8.539062 -6.265625 -8.5625 L -1.21875 -9.75 Z M -3.953125 -11.671875 "/></g></g></g><g fill="#403029" fill-opacity="1"><g transform="translate(115.047388, 121.516685)"><g><path d="M 1 -1.03125 C 0.925781 -0.96875 0.84375 -0.929688 0.75 -0.921875 C 0.664062 -0.921875 0.59375 -0.957031 0.53125 -1.03125 L -6.421875 -7.671875 C -6.484375 -7.734375 -6.515625 -7.804688 -6.515625 -7.890625 C -6.523438 -7.984375 -6.492188 -8.0625 -6.421875 -8.125 L -2.8125 -11.921875 C -2.5625 -12.179688 -2.269531 -12.378906 -1.9375 -12.515625 C -1.613281 -12.660156 -1.28125 -12.734375 -0.9375 -12.734375 C -0.601562 -12.742188 -0.273438 -12.6875 0.046875 -12.5625 C 0.378906 -12.445312 0.675781 -12.257812 0.9375 -12 L 4.53125 -8.578125 C 4.800781 -8.316406 5 -8.023438 5.125 -7.703125 C 5.257812 -7.378906 5.328125 -7.050781 5.328125 -6.71875 C 5.335938 -6.382812 5.28125 -6.050781 5.15625 -5.71875 C 5.039062 -5.382812 4.859375 -5.085938 4.609375 -4.828125 Z M 0.703125 -3.703125 L 3.125 -6.25 C 3.25 -6.375 3.304688 -6.515625 3.296875 -6.671875 C 3.285156 -6.828125 3.21875 -6.96875 3.09375 -7.09375 L -0.5 -10.515625 C -0.613281 -10.628906 -0.75 -10.6875 -0.90625 -10.6875 C -1.0625 -10.695312 -1.203125 -10.640625 -1.328125 -10.515625 L -3.75 -7.96875 Z M 0.703125 -3.703125 "/></g></g></g><g fill="#403029" fill-opacity="1"><g transform="translate(125.103676, 111.423668)"><g><path d="M 7.078125 -5.828125 C 7.160156 -5.796875 7.203125 -5.742188 7.203125 -5.671875 C 7.210938 -5.597656 7.1875 -5.535156 7.125 -5.484375 L 5.84375 -4.5 C 5.78125 -4.445312 5.691406 -4.414062 5.578125 -4.40625 C 5.472656 -4.40625 5.382812 -4.425781 5.3125 -4.46875 L 1.625 -6.421875 L 0.015625 -5.1875 L 2.3125 -2.203125 C 2.375 -2.128906 2.394531 -2.046875 2.375 -1.953125 C 2.363281 -1.867188 2.320312 -1.796875 2.25 -1.734375 L 1.140625 -0.875 C 1.066406 -0.820312 0.984375 -0.800781 0.890625 -0.8125 C 0.804688 -0.820312 0.734375 -0.863281 0.671875 -0.9375 L -5.1875 -8.546875 C -5.25 -8.617188 -5.269531 -8.695312 -5.25 -8.78125 C -5.238281 -8.875 -5.195312 -8.945312 -5.125 -9 L -0.984375 -12.203125 C -0.679688 -12.429688 -0.359375 -12.585938 -0.015625 -12.671875 C 0.316406 -12.753906 0.648438 -12.773438 0.984375 -12.734375 C 1.328125 -12.691406 1.648438 -12.582031 1.953125 -12.40625 C 2.253906 -12.238281 2.515625 -12.015625 2.734375 -11.734375 L 3.265625 -11.03125 C 3.453125 -10.789062 3.59375 -10.535156 3.6875 -10.265625 C 3.78125 -9.992188 3.828125 -9.71875 3.828125 -9.4375 C 3.828125 -9.15625 3.78125 -8.878906 3.6875 -8.609375 C 3.601562 -8.335938 3.476562 -8.082031 3.3125 -7.84375 Z M 1.53125 -8.953125 C 1.675781 -9.054688 1.753906 -9.1875 1.765625 -9.34375 C 1.785156 -9.507812 1.742188 -9.65625 1.640625 -9.78125 L 1.109375 -10.484375 C 1.003906 -10.609375 0.875 -10.679688 0.71875 -10.703125 C 0.5625 -10.734375 0.410156 -10.695312 0.265625 -10.59375 L -2.5 -8.453125 L -1.234375 -6.8125 Z M 1.53125 -8.953125 "/></g></g></g><g fill="#403029" fill-opacity="1"><g transform="translate(136.564731, 102.959497)"><g><path d="M 3.859375 -11.890625 C 3.898438 -11.804688 3.90625 -11.722656 3.875 -11.640625 C 3.851562 -11.554688 3.800781 -11.488281 3.71875 -11.4375 L 1.46875 -10.203125 L 4.46875 -4.8125 L 6.71875 -6.046875 C 6.800781 -6.097656 6.878906 -6.109375 6.953125 -6.078125 C 7.035156 -6.054688 7.101562 -6.003906 7.15625 -5.921875 L 7.828125 -4.703125 C 7.867188 -4.628906 7.878906 -4.546875 7.859375 -4.453125 C 7.835938 -4.367188 7.785156 -4.300781 7.703125 -4.25 L 1.4375 -0.796875 C 1.363281 -0.753906 1.28125 -0.742188 1.1875 -0.765625 C 1.101562 -0.796875 1.039062 -0.847656 1 -0.921875 L 0.328125 -2.140625 C 0.273438 -2.222656 0.265625 -2.304688 0.296875 -2.390625 C 0.328125 -2.484375 0.378906 -2.550781 0.453125 -2.59375 L 2.6875 -3.828125 L -0.3125 -9.21875 L -2.546875 -7.984375 C -2.617188 -7.941406 -2.695312 -7.929688 -2.78125 -7.953125 C -2.863281 -7.972656 -2.925781 -8.023438 -2.96875 -8.109375 L -3.65625 -9.34375 C -3.695312 -9.414062 -3.703125 -9.492188 -3.671875 -9.578125 C -3.648438 -9.671875 -3.601562 -9.738281 -3.53125 -9.78125 L 2.734375 -13.234375 C 2.816406 -13.285156 2.898438 -13.296875 2.984375 -13.265625 C 3.066406 -13.242188 3.128906 -13.195312 3.171875 -13.125 Z M 3.859375 -11.890625 "/></g></g></g><g fill="#403029" fill-opacity="1"><g transform="translate(149.169346, 96.317101)"><g><path d="M 2.640625 -11.921875 C 2.722656 -11.953125 2.8125 -11.953125 2.90625 -11.921875 C 3.007812 -11.898438 3.09375 -11.851562 3.15625 -11.78125 L 7.03125 -7.515625 C 7.082031 -7.441406 7.144531 -7.351562 7.21875 -7.25 C 7.289062 -7.144531 7.34375 -7.050781 7.375 -6.96875 L 8.640625 -3.546875 C 8.671875 -3.453125 8.664062 -3.363281 8.625 -3.28125 C 8.582031 -3.195312 8.519531 -3.144531 8.4375 -3.125 L 7.125 -2.640625 C 7.03125 -2.597656 6.941406 -2.59375 6.859375 -2.625 C 6.785156 -2.664062 6.734375 -2.734375 6.703125 -2.828125 L 6.109375 -4.4375 L 2.25 -3.015625 L 2.84375 -1.40625 C 2.875 -1.3125 2.867188 -1.222656 2.828125 -1.140625 C 2.796875 -1.066406 2.738281 -1.015625 2.65625 -0.984375 L 1.34375 -0.5 C 1.257812 -0.46875 1.175781 -0.46875 1.09375 -0.5 C 1.019531 -0.539062 0.96875 -0.609375 0.9375 -0.703125 L -0.328125 -4.125 C -0.359375 -4.207031 -0.382812 -4.304688 -0.40625 -4.421875 C -0.4375 -4.546875 -0.445312 -4.65625 -0.4375 -4.75 L -0.28125 -10.515625 C -0.289062 -10.609375 -0.265625 -10.695312 -0.203125 -10.78125 C -0.140625 -10.863281 -0.0664062 -10.921875 0.015625 -10.953125 Z M 1.609375 -4.96875 L 5.3125 -6.34375 L 2.34375 -9.625 L 1.734375 -9.390625 Z M 1.609375 -4.96875 "/></g></g></g><g fill="#403029" fill-opacity="1"><g transform="translate(162.63084, 91.64877)"><g/></g></g><g fill="#403029" fill-opacity="1"><g transform="translate(176.62706, 89.061312)"><g><path d="M 6.734375 -10.296875 C 6.722656 -10.390625 6.75 -10.46875 6.8125 -10.53125 C 6.875 -10.601562 6.953125 -10.640625 7.046875 -10.640625 L 8.453125 -10.71875 C 8.535156 -10.71875 8.609375 -10.6875 8.671875 -10.625 C 8.734375 -10.570312 8.769531 -10.5 8.78125 -10.40625 L 9.28125 -0.8125 C 9.28125 -0.71875 9.25 -0.632812 9.1875 -0.5625 C 9.132812 -0.5 9.066406 -0.46875 8.984375 -0.46875 L 7.578125 -0.390625 C 7.484375 -0.390625 7.398438 -0.414062 7.328125 -0.46875 C 7.265625 -0.53125 7.234375 -0.609375 7.234375 -0.703125 L 7.03125 -4.46875 L 2.9375 -4.265625 L 3.140625 -0.5 C 3.140625 -0.40625 3.109375 -0.320312 3.046875 -0.25 C 2.992188 -0.1875 2.921875 -0.148438 2.828125 -0.140625 L 1.421875 -0.078125 C 1.328125 -0.0664062 1.25 -0.09375 1.1875 -0.15625 C 1.125 -0.21875 1.09375 -0.296875 1.09375 -0.390625 L 0.59375 -9.984375 C 0.582031 -10.078125 0.601562 -10.15625 0.65625 -10.21875 C 0.71875 -10.28125 0.796875 -10.316406 0.890625 -10.328125 L 2.296875 -10.390625 C 2.390625 -10.398438 2.46875 -10.375 2.53125 -10.3125 C 2.59375 -10.257812 2.628906 -10.1875 2.640625 -10.09375 L 2.828125 -6.3125 L 6.921875 -6.515625 Z M 6.734375 -10.296875 "/></g></g></g><g fill="#403029" fill-opacity="1"><g transform="translate(190.852659, 88.605814)"><g><path d="M 7.59375 -9.5625 C 7.6875 -9.550781 7.769531 -9.515625 7.84375 -9.453125 C 7.925781 -9.390625 7.976562 -9.3125 8 -9.21875 L 9.609375 -3.6875 C 9.628906 -3.601562 9.644531 -3.492188 9.65625 -3.359375 C 9.675781 -3.234375 9.679688 -3.128906 9.671875 -3.046875 L 9.3125 0.59375 C 9.300781 0.6875 9.257812 0.757812 9.1875 0.8125 C 9.113281 0.875 9.035156 0.898438 8.953125 0.890625 L 7.5625 0.75 C 7.46875 0.738281 7.390625 0.695312 7.328125 0.625 C 7.273438 0.5625 7.253906 0.484375 7.265625 0.390625 L 7.4375 -1.3125 L 3.34375 -1.71875 L 3.171875 -0.015625 C 3.160156 0.078125 3.117188 0.148438 3.046875 0.203125 C 2.984375 0.265625 2.90625 0.289062 2.8125 0.28125 L 1.4375 0.140625 C 1.34375 0.128906 1.265625 0.0859375 1.203125 0.015625 C 1.148438 -0.046875 1.128906 -0.125 1.140625 -0.21875 L 1.5 -3.859375 C 1.507812 -3.941406 1.53125 -4.039062 1.5625 -4.15625 C 1.601562 -4.28125 1.644531 -4.382812 1.6875 -4.46875 L 4.34375 -9.59375 C 4.382812 -9.664062 4.453125 -9.726562 4.546875 -9.78125 C 4.640625 -9.832031 4.726562 -9.851562 4.8125 -9.84375 Z M 3.625 -3.765625 L 7.5625 -3.375 L 6.3125 -7.625 L 5.65625 -7.6875 Z M 3.625 -3.765625 "/></g></g></g><g fill="#403029" fill-opacity="1"><g transform="translate(204.999388, 90.299302)"><g><path d="M 11.265625 -7.71875 C 11.347656 -7.695312 11.414062 -7.648438 11.46875 -7.578125 C 11.507812 -7.492188 11.515625 -7.40625 11.484375 -7.3125 L 9.109375 2 C 9.085938 2.082031 9.046875 2.140625 8.984375 2.171875 C 8.890625 2.234375 8.800781 2.253906 8.71875 2.234375 L 7.375 1.890625 C 7.28125 1.859375 7.210938 1.800781 7.171875 1.71875 C 7.128906 1.644531 7.117188 1.566406 7.140625 1.484375 L 8.71875 -4.71875 L 7.046875 -3.125 C 6.972656 -3.0625 6.882812 -3.007812 6.78125 -2.96875 C 6.675781 -2.945312 6.578125 -2.945312 6.484375 -2.96875 L 5.84375 -3.140625 C 5.769531 -3.160156 5.6875 -3.207031 5.59375 -3.28125 C 5.519531 -3.363281 5.472656 -3.445312 5.453125 -3.53125 L 4.734375 -5.75 L 3.140625 0.46875 C 3.117188 0.550781 3.070312 0.609375 3 0.640625 C 2.914062 0.703125 2.828125 0.722656 2.734375 0.703125 L 1.390625 0.359375 C 1.296875 0.335938 1.238281 0.28125 1.21875 0.1875 C 1.15625 0.125 1.132812 0.0507812 1.15625 -0.03125 L 3.53125 -9.34375 C 3.5625 -9.4375 3.617188 -9.507812 3.703125 -9.5625 C 3.765625 -9.601562 3.84375 -9.613281 3.9375 -9.59375 L 5.28125 -9.25 L 5.375 -9.203125 C 5.425781 -9.179688 5.46875 -9.144531 5.5 -9.09375 C 5.59375 -9.03125 5.648438 -8.953125 5.671875 -8.859375 L 6.71875 -5.171875 L 9.390625 -7.90625 C 9.460938 -7.976562 9.539062 -8.023438 9.625 -8.046875 L 9.765625 -8.078125 C 9.816406 -8.085938 9.867188 -8.082031 9.921875 -8.0625 Z M 11.265625 -7.71875 "/></g></g></g><g fill="#403029" fill-opacity="1"><g transform="translate(218.729962, 94.103098)"><g><path d="M 11.734375 -4.296875 C 11.703125 -4.203125 11.644531 -4.140625 11.5625 -4.109375 C 11.476562 -4.085938 11.390625 -4.09375 11.296875 -4.125 L 8.9375 -5.125 L 6.53125 0.546875 L 8.890625 1.546875 C 8.984375 1.578125 9.046875 1.632812 9.078125 1.71875 C 9.109375 1.800781 9.109375 1.890625 9.078125 1.984375 L 8.53125 3.265625 C 8.5 3.347656 8.441406 3.40625 8.359375 3.4375 C 8.273438 3.46875 8.1875 3.46875 8.09375 3.4375 L 1.515625 0.640625 C 1.429688 0.609375 1.367188 0.550781 1.328125 0.46875 C 1.296875 0.382812 1.296875 0.300781 1.328125 0.21875 L 1.875 -1.0625 C 1.90625 -1.15625 1.960938 -1.21875 2.046875 -1.25 C 2.140625 -1.28125 2.226562 -1.28125 2.3125 -1.25 L 4.65625 -0.25 L 7.0625 -5.921875 L 4.71875 -6.921875 C 4.632812 -6.953125 4.570312 -7.003906 4.53125 -7.078125 C 4.5 -7.160156 4.5 -7.25 4.53125 -7.34375 L 5.078125 -8.640625 C 5.117188 -8.722656 5.179688 -8.78125 5.265625 -8.8125 C 5.359375 -8.84375 5.445312 -8.84375 5.53125 -8.8125 L 12.109375 -6.015625 C 12.203125 -5.984375 12.265625 -5.925781 12.296875 -5.84375 C 12.328125 -5.757812 12.320312 -5.675781 12.28125 -5.59375 Z M 11.734375 -4.296875 "/></g></g></g><g fill="#403029" fill-opacity="1"><g transform="translate(231.731494, 99.9305)"><g><path d="M 7.5625 4.65625 L 1.59375 0.984375 C 1.507812 0.929688 1.457031 0.863281 1.4375 0.78125 C 1.414062 0.695312 1.429688 0.613281 1.484375 0.53125 L 6.53125 -7.640625 C 6.570312 -7.722656 6.632812 -7.773438 6.71875 -7.796875 C 6.8125 -7.816406 6.898438 -7.800781 6.984375 -7.75 L 8.171875 -7.015625 C 8.242188 -6.972656 8.289062 -6.90625 8.3125 -6.8125 C 8.332031 -6.726562 8.320312 -6.644531 8.28125 -6.5625 L 4.140625 0.140625 L 8.640625 2.90625 C 8.710938 2.957031 8.753906 3.023438 8.765625 3.109375 C 8.785156 3.191406 8.773438 3.269531 8.734375 3.34375 L 8 4.53125 C 7.945312 4.613281 7.878906 4.664062 7.796875 4.6875 C 7.710938 4.71875 7.632812 4.707031 7.5625 4.65625 Z M 7.5625 4.65625 "/></g></g></g><g fill="#403029" fill-opacity="1"><g transform="translate(243.707595, 107.648702)"><g><path d="M 13.5 -2 C 13.5625 -1.945312 13.597656 -1.875 13.609375 -1.78125 C 13.617188 -1.695312 13.59375 -1.617188 13.53125 -1.546875 L 12.625 -0.46875 C 12.5625 -0.40625 12.484375 -0.367188 12.390625 -0.359375 C 12.304688 -0.359375 12.234375 -0.382812 12.171875 -0.4375 L 10.0625 -2.234375 L 4.96875 3.78125 C 4.90625 3.851562 4.828125 3.890625 4.734375 3.890625 C 4.648438 3.898438 4.570312 3.875 4.5 3.8125 L 3.4375 2.90625 C 3.375 2.851562 3.335938 2.78125 3.328125 2.6875 C 3.316406 2.601562 3.34375 2.523438 3.40625 2.453125 L 8.5 -3.5625 L 6.40625 -5.328125 C 6.332031 -5.390625 6.289062 -5.460938 6.28125 -5.546875 C 6.269531 -5.640625 6.296875 -5.71875 6.359375 -5.78125 L 7.265625 -6.859375 C 7.328125 -6.929688 7.398438 -6.96875 7.484375 -6.96875 C 7.578125 -6.976562 7.660156 -6.953125 7.734375 -6.890625 Z M 13.5 -2 "/></g></g></g><g fill="#403029" fill-opacity="1"><g transform="translate(254.385384, 117.081787)"><g><path d="M 12.109375 -1.703125 C 12.359375 -1.421875 12.53125 -1.113281 12.625 -0.78125 C 12.726562 -0.445312 12.769531 -0.113281 12.75 0.21875 C 12.726562 0.5625 12.644531 0.890625 12.5 1.203125 C 12.351562 1.515625 12.144531 1.789062 11.875 2.03125 L 8.109375 5.296875 C 7.835938 5.535156 7.535156 5.707031 7.203125 5.8125 C 6.867188 5.914062 6.53125 5.953125 6.1875 5.921875 C 5.851562 5.898438 5.53125 5.816406 5.21875 5.671875 C 4.90625 5.523438 4.625 5.3125 4.375 5.03125 L 2.46875 2.828125 C 2.226562 2.554688 2.054688 2.253906 1.953125 1.921875 C 1.847656 1.585938 1.804688 1.25 1.828125 0.90625 C 1.847656 0.570312 1.929688 0.25 2.078125 -0.0625 C 2.234375 -0.375 2.445312 -0.648438 2.71875 -0.890625 L 6.484375 -4.15625 C 6.753906 -4.394531 7.050781 -4.566406 7.375 -4.671875 C 7.707031 -4.773438 8.039062 -4.8125 8.375 -4.78125 C 8.71875 -4.757812 9.046875 -4.675781 9.359375 -4.53125 C 9.679688 -4.382812 9.960938 -4.175781 10.203125 -3.90625 Z M 10.53125 0.484375 C 10.65625 0.367188 10.722656 0.234375 10.734375 0.078125 C 10.742188 -0.078125 10.6875 -0.222656 10.5625 -0.359375 L 8.65625 -2.5625 C 8.539062 -2.6875 8.40625 -2.753906 8.25 -2.765625 C 8.09375 -2.785156 7.953125 -2.738281 7.828125 -2.625 L 4.0625 0.640625 C 3.9375 0.753906 3.867188 0.890625 3.859375 1.046875 C 3.847656 1.210938 3.898438 1.359375 4.015625 1.484375 L 5.921875 3.6875 C 6.046875 3.820312 6.1875 3.894531 6.34375 3.90625 C 6.5 3.914062 6.640625 3.863281 6.765625 3.75 Z M 10.53125 0.484375 "/></g></g></g><g fill="#403029" fill-opacity="1"><g transform="translate(263.521428, 128.014789)"><g><path d="M 12.28125 0.8125 C 12.363281 0.769531 12.445312 0.753906 12.53125 0.765625 C 12.613281 0.785156 12.679688 0.832031 12.734375 0.90625 L 13.484375 2.09375 C 13.535156 2.164062 13.550781 2.25 13.53125 2.34375 C 13.519531 2.4375 13.472656 2.503906 13.390625 2.546875 L 5.28125 7.703125 C 5.195312 7.753906 5.109375 7.765625 5.015625 7.734375 C 4.929688 7.710938 4.863281 7.664062 4.8125 7.59375 L 4.0625 6.40625 C 4.007812 6.332031 3.992188 6.253906 4.015625 6.171875 C 4.035156 6.085938 4.085938 6.019531 4.171875 5.96875 L 7.125 4.09375 L 8.03125 -1.359375 L 1.96875 2.5 C 1.882812 2.550781 1.800781 2.5625 1.71875 2.53125 C 1.632812 2.507812 1.566406 2.460938 1.515625 2.390625 L 0.765625 1.21875 C 0.710938 1.132812 0.695312 1.050781 0.71875 0.96875 C 0.738281 0.882812 0.789062 0.816406 0.875 0.765625 L 8.984375 -4.390625 C 9.066406 -4.429688 9.148438 -4.441406 9.234375 -4.421875 C 9.316406 -4.410156 9.382812 -4.363281 9.4375 -4.28125 L 10.1875 -3.109375 C 10.238281 -3.035156 10.273438 -2.941406 10.296875 -2.828125 C 10.316406 -2.710938 10.316406 -2.609375 10.296875 -2.515625 L 9.453125 2.609375 Z M 12.28125 0.8125 "/></g></g></g><g fill="#403029" fill-opacity="1"><g transform="translate(95.59372, 236.682421)"><g><path d="M 0.8125 1.109375 L 9.515625 -3.53125 C 9.566406 -3.550781 9.617188 -3.550781 9.671875 -3.53125 C 9.734375 -3.507812 9.78125 -3.476562 9.8125 -3.4375 L 12.3125 1.25 C 12.445312 1.507812 12.523438 1.78125 12.546875 2.0625 C 12.566406 2.351562 12.535156 2.632812 12.453125 2.90625 C 12.378906 3.175781 12.25 3.425781 12.0625 3.65625 C 11.882812 3.882812 11.660156 4.070312 11.390625 4.21875 L 6.203125 6.984375 C 5.929688 7.128906 5.648438 7.210938 5.359375 7.234375 C 5.066406 7.253906 4.785156 7.222656 4.515625 7.140625 C 4.253906 7.054688 4.007812 6.921875 3.78125 6.734375 C 3.5625 6.554688 3.382812 6.335938 3.25 6.078125 L 0.75 1.390625 C 0.71875 1.347656 0.707031 1.296875 0.71875 1.234375 C 0.738281 1.171875 0.769531 1.128906 0.8125 1.109375 Z M 2.171875 1.671875 L 4.25 5.546875 C 4.375 5.796875 4.578125 5.960938 4.859375 6.046875 C 5.140625 6.128906 5.410156 6.101562 5.671875 5.96875 L 10.859375 3.203125 C 11.117188 3.054688 11.285156 2.84375 11.359375 2.5625 C 11.441406 2.289062 11.421875 2.03125 11.296875 1.78125 L 9.21875 -2.09375 Z M 2.171875 1.671875 "/></g></g></g><g fill="#403029" fill-opacity="1"><g transform="translate(103.282678, 250.27083)"><g><path d="M 1.125 1.171875 L 9.03125 -4.71875 C 9.144531 -4.800781 9.238281 -4.789062 9.3125 -4.6875 L 13.484375 0.890625 C 13.578125 1.015625 13.566406 1.117188 13.453125 1.203125 L 12.875 1.625 C 12.757812 1.71875 12.65625 1.703125 12.5625 1.578125 L 8.9375 -3.28125 L 6.203125 -1.234375 L 9.359375 3 C 9.378906 3.03125 9.378906 3.078125 9.359375 3.140625 C 9.347656 3.203125 9.328125 3.242188 9.296875 3.265625 L 8.71875 3.703125 C 8.664062 3.742188 8.609375 3.753906 8.546875 3.734375 C 8.492188 3.722656 8.457031 3.703125 8.4375 3.671875 L 5.28125 -0.5625 L 2.546875 1.484375 L 6.171875 6.34375 C 6.210938 6.394531 6.222656 6.453125 6.203125 6.515625 C 6.191406 6.585938 6.164062 6.640625 6.125 6.671875 L 5.546875 7.09375 C 5.441406 7.175781 5.34375 7.15625 5.25 7.03125 L 1.078125 1.453125 C 1.003906 1.347656 1.019531 1.253906 1.125 1.171875 Z M 1.125 1.171875 "/></g></g></g><g fill="#403029" fill-opacity="1"><g transform="translate(112.920953, 262.526519)"><g><path d="M 2.5 -0.609375 L 2.984375 -1.09375 C 3.023438 -1.132812 3.070312 -1.148438 3.125 -1.140625 C 3.1875 -1.140625 3.238281 -1.117188 3.28125 -1.078125 L 3.796875 -0.578125 C 3.828125 -0.535156 3.84375 -0.488281 3.84375 -0.4375 C 3.851562 -0.382812 3.835938 -0.335938 3.796875 -0.296875 L 3.3125 0.1875 C 3.113281 0.394531 3.015625 0.644531 3.015625 0.9375 C 3.015625 1.226562 3.117188 1.472656 3.328125 1.671875 L 5.703125 4.03125 C 5.898438 4.226562 6.144531 4.328125 6.4375 4.328125 C 6.738281 4.328125 6.988281 4.222656 7.1875 4.015625 L 8.125 3.078125 C 8.332031 2.867188 8.429688 2.617188 8.421875 2.328125 C 8.410156 2.035156 8.304688 1.789062 8.109375 1.59375 L 5.734375 -0.765625 C 5.515625 -0.972656 5.351562 -1.207031 5.25 -1.46875 C 5.144531 -1.738281 5.085938 -2.015625 5.078125 -2.296875 C 5.078125 -2.578125 5.128906 -2.851562 5.234375 -3.125 C 5.335938 -3.394531 5.492188 -3.640625 5.703125 -3.859375 L 6.640625 -4.796875 C 6.847656 -5.015625 7.085938 -5.175781 7.359375 -5.28125 C 7.628906 -5.382812 7.90625 -5.4375 8.1875 -5.4375 C 8.46875 -5.4375 8.738281 -5.382812 9 -5.28125 C 9.269531 -5.1875 9.515625 -5.035156 9.734375 -4.828125 L 12.109375 -2.46875 C 12.316406 -2.269531 12.472656 -2.035156 12.578125 -1.765625 C 12.691406 -1.492188 12.75 -1.210938 12.75 -0.921875 C 12.757812 -0.640625 12.710938 -0.363281 12.609375 -0.09375 C 12.503906 0.164062 12.347656 0.40625 12.140625 0.625 L 11.65625 1.109375 C 11.5625 1.210938 11.460938 1.210938 11.359375 1.109375 L 10.84375 0.609375 C 10.75 0.515625 10.75 0.414062 10.84375 0.3125 L 11.328125 -0.171875 C 11.535156 -0.378906 11.632812 -0.628906 11.625 -0.921875 C 11.613281 -1.210938 11.507812 -1.457031 11.3125 -1.65625 L 8.9375 -4.015625 C 8.726562 -4.210938 8.476562 -4.3125 8.1875 -4.3125 C 7.90625 -4.3125 7.660156 -4.207031 7.453125 -4 L 6.515625 -3.0625 C 6.316406 -2.851562 6.21875 -2.601562 6.21875 -2.3125 C 6.21875 -2.019531 6.320312 -1.773438 6.53125 -1.578125 L 8.90625 0.78125 C 9.113281 0.976562 9.269531 1.210938 9.375 1.484375 C 9.488281 1.753906 9.546875 2.03125 9.546875 2.3125 C 9.554688 2.601562 9.507812 2.878906 9.40625 3.140625 C 9.300781 3.410156 9.144531 3.65625 8.9375 3.875 L 8 4.8125 C 7.789062 5.03125 7.546875 5.195312 7.265625 5.3125 C 6.992188 5.425781 6.71875 5.476562 6.4375 5.46875 C 6.15625 5.457031 5.878906 5.398438 5.609375 5.296875 C 5.347656 5.191406 5.113281 5.039062 4.90625 4.84375 L 2.53125 2.484375 C 2.3125 2.273438 2.144531 2.035156 2.03125 1.765625 C 1.925781 1.503906 1.867188 1.234375 1.859375 0.953125 C 1.859375 0.679688 1.910156 0.40625 2.015625 0.125 C 2.128906 -0.144531 2.289062 -0.390625 2.5 -0.609375 Z M 2.5 -0.609375 "/></g></g></g><g fill="#403029" fill-opacity="1"><g transform="translate(124.304277, 273.207687)"><g><path d="M 1.40625 0.75 L 1.828125 0.171875 C 1.859375 0.128906 1.898438 0.0976562 1.953125 0.078125 C 2.003906 0.0664062 2.054688 0.0820312 2.109375 0.125 L 4.4375 1.8125 L 9.125 -4.65625 L 6.796875 -6.34375 C 6.691406 -6.425781 6.679688 -6.523438 6.765625 -6.640625 L 7.1875 -7.21875 C 7.269531 -7.332031 7.363281 -7.347656 7.46875 -7.265625 L 13.03125 -3.234375 C 13.144531 -3.148438 13.160156 -3.050781 13.078125 -2.9375 L 12.65625 -2.359375 C 12.570312 -2.242188 12.472656 -2.226562 12.359375 -2.3125 L 10.046875 -3.984375 L 5.359375 2.484375 L 7.671875 4.15625 C 7.710938 4.1875 7.738281 4.234375 7.75 4.296875 C 7.757812 4.359375 7.75 4.410156 7.71875 4.453125 L 7.296875 5.03125 C 7.210938 5.144531 7.113281 5.160156 7 5.078125 L 1.4375 1.046875 C 1.332031 0.960938 1.320312 0.863281 1.40625 0.75 Z M 1.40625 0.75 "/></g></g></g><g fill="#403029" fill-opacity="1"><g transform="translate(137.165443, 282.056439)"><g><path d="M 10.484375 -1 C 10.535156 -0.96875 10.566406 -0.921875 10.578125 -0.859375 C 10.597656 -0.804688 10.597656 -0.765625 10.578125 -0.734375 L 9.0625 2.21875 C 8.925781 2.476562 8.742188 2.703125 8.515625 2.890625 C 8.296875 3.085938 8.050781 3.222656 7.78125 3.296875 C 7.507812 3.367188 7.226562 3.394531 6.9375 3.375 C 6.65625 3.363281 6.382812 3.289062 6.125 3.15625 L 3.15625 1.625 C 2.882812 1.488281 2.660156 1.304688 2.484375 1.078125 C 2.304688 0.859375 2.171875 0.617188 2.078125 0.359375 C 1.984375 0.0976562 1.945312 -0.175781 1.96875 -0.46875 C 1.988281 -0.769531 2.066406 -1.050781 2.203125 -1.3125 L 4.90625 -6.546875 C 5.039062 -6.816406 5.222656 -7.046875 5.453125 -7.234375 C 5.679688 -7.421875 5.929688 -7.550781 6.203125 -7.625 C 6.472656 -7.707031 6.75 -7.738281 7.03125 -7.71875 C 7.3125 -7.707031 7.585938 -7.632812 7.859375 -7.5 L 10.828125 -5.96875 C 11.085938 -5.832031 11.304688 -5.648438 11.484375 -5.421875 C 11.671875 -5.203125 11.804688 -4.957031 11.890625 -4.6875 C 11.984375 -4.425781 12.019531 -4.148438 12 -3.859375 C 11.988281 -3.578125 11.914062 -3.300781 11.78125 -3.03125 L 11.453125 -2.40625 C 11.390625 -2.289062 11.296875 -2.265625 11.171875 -2.328125 L 10.53125 -2.65625 C 10.40625 -2.71875 10.375 -2.804688 10.4375 -2.921875 L 10.765625 -3.546875 C 10.890625 -3.804688 10.90625 -4.070312 10.8125 -4.34375 C 10.726562 -4.613281 10.5625 -4.816406 10.3125 -4.953125 L 7.34375 -6.484375 C 7.082031 -6.617188 6.8125 -6.640625 6.53125 -6.546875 C 6.257812 -6.460938 6.054688 -6.289062 5.921875 -6.03125 L 3.21875 -0.796875 C 3.082031 -0.546875 3.054688 -0.28125 3.140625 0 C 3.234375 0.269531 3.410156 0.472656 3.671875 0.609375 L 6.640625 2.140625 C 6.890625 2.273438 7.148438 2.296875 7.421875 2.203125 C 7.703125 2.117188 7.910156 1.953125 8.046875 1.703125 L 9.140625 -0.40625 L 6.96875 -1.53125 C 6.914062 -1.550781 6.878906 -1.59375 6.859375 -1.65625 C 6.835938 -1.71875 6.835938 -1.773438 6.859375 -1.828125 L 7.1875 -2.46875 C 7.207031 -2.5 7.25 -2.523438 7.3125 -2.546875 C 7.375 -2.566406 7.429688 -2.566406 7.484375 -2.546875 Z M 10.484375 -1 "/></g></g></g><g fill="#403029" fill-opacity="1"><g transform="translate(151.197755, 288.856668)"><g><path d="M 7.578125 2.34375 L 8.953125 -1.734375 L 5.25 -7.734375 L 2.4375 0.609375 C 2.394531 0.734375 2.304688 0.773438 2.171875 0.734375 L 1.5 0.5 C 1.445312 0.488281 1.40625 0.453125 1.375 0.390625 C 1.34375 0.335938 1.332031 0.289062 1.34375 0.25 L 4.5 -9.09375 C 4.519531 -9.15625 4.554688 -9.195312 4.609375 -9.21875 C 4.671875 -9.238281 4.726562 -9.242188 4.78125 -9.234375 L 5.71875 -8.90625 C 5.851562 -8.863281 5.960938 -8.785156 6.046875 -8.671875 L 9.4375 -3.171875 L 10.734375 -7 C 10.773438 -7.132812 10.863281 -7.175781 11 -7.125 L 11.671875 -6.90625 C 11.804688 -6.851562 11.851562 -6.757812 11.8125 -6.625 L 8.65625 2.71875 C 8.613281 2.84375 8.523438 2.878906 8.390625 2.828125 L 7.71875 2.609375 C 7.582031 2.554688 7.535156 2.46875 7.578125 2.34375 Z M 7.578125 2.34375 "/></g></g></g><g fill="#403029" fill-opacity="1"><g transform="translate(166.108474, 293.477501)"><g><path d="M 1.609375 0.078125 L 3.328125 -9.625 C 3.347656 -9.757812 3.425781 -9.816406 3.5625 -9.796875 L 10.421875 -8.578125 C 10.566406 -8.554688 10.628906 -8.476562 10.609375 -8.34375 L 10.484375 -7.640625 C 10.453125 -7.492188 10.363281 -7.429688 10.21875 -7.453125 L 4.25 -8.515625 L 3.65625 -5.140625 L 8.84375 -4.21875 C 8.882812 -4.21875 8.925781 -4.191406 8.96875 -4.140625 C 9.007812 -4.085938 9.023438 -4.039062 9.015625 -4 L 8.890625 -3.28125 C 8.878906 -3.21875 8.847656 -3.171875 8.796875 -3.140625 C 8.742188 -3.117188 8.695312 -3.109375 8.65625 -3.109375 L 3.46875 -4.03125 L 2.875 -0.65625 L 8.84375 0.40625 C 8.90625 0.414062 8.953125 0.445312 8.984375 0.5 C 9.015625 0.550781 9.023438 0.601562 9.015625 0.65625 L 8.890625 1.359375 C 8.867188 1.492188 8.785156 1.550781 8.640625 1.53125 L 1.78125 0.3125 C 1.644531 0.289062 1.585938 0.210938 1.609375 0.078125 Z M 1.609375 0.078125 "/></g></g></g><g fill="#403029" fill-opacity="1"><g transform="translate(181.52911, 295.796381)"><g><path d="M 7.65625 -0.015625 L 5.8125 -4.421875 L 2.609375 -4.5 L 2.5 -0.140625 C 2.5 -0.00390625 2.429688 0.0546875 2.296875 0.046875 L 1.59375 0.03125 C 1.445312 0.03125 1.375 -0.0351562 1.375 -0.171875 L 1.609375 -10.03125 C 1.609375 -10.164062 1.679688 -10.234375 1.828125 -10.234375 L 7.125 -10.109375 C 7.414062 -10.097656 7.691406 -10.03125 7.953125 -9.90625 C 8.222656 -9.789062 8.457031 -9.628906 8.65625 -9.421875 C 8.851562 -9.222656 9.003906 -8.988281 9.109375 -8.71875 C 9.222656 -8.445312 9.273438 -8.160156 9.265625 -7.859375 L 9.234375 -6.53125 C 9.222656 -6.039062 9.0625 -5.609375 8.75 -5.234375 C 8.445312 -4.859375 8.0625 -4.609375 7.59375 -4.484375 L 7.078125 -4.34375 L 8.890625 0.015625 C 8.921875 0.0546875 8.921875 0.0976562 8.890625 0.140625 C 8.867188 0.179688 8.828125 0.203125 8.765625 0.203125 L 7.953125 0.1875 C 7.890625 0.1875 7.828125 0.160156 7.765625 0.109375 C 7.703125 0.0664062 7.664062 0.0234375 7.65625 -0.015625 Z M 2.640625 -5.640625 L 7.03125 -5.546875 C 7.3125 -5.535156 7.554688 -5.628906 7.765625 -5.828125 C 7.972656 -6.023438 8.082031 -6.269531 8.09375 -6.5625 L 8.125 -7.890625 C 8.132812 -8.179688 8.035156 -8.429688 7.828125 -8.640625 C 7.628906 -8.847656 7.390625 -8.957031 7.109375 -8.96875 L 2.71875 -9.0625 Z M 2.640625 -5.640625 "/></g></g></g><g fill="#403029" fill-opacity="1"><g transform="translate(197.138776, 295.770957)"><g/></g></g><g fill="#403029" fill-opacity="1"><g transform="translate(212.551661, 293.39838)"><g><path d="M 0.671875 -2.46875 L 0.3125 -3.734375 C 0.175781 -4.210938 0.203125 -4.679688 0.390625 -5.140625 L 0.5 -5.484375 L 0.234375 -5.703125 C -0.160156 -5.960938 -0.429688 -6.34375 -0.578125 -6.84375 L -0.9375 -8.125 C -1.019531 -8.414062 -1.039062 -8.703125 -1 -8.984375 C -0.96875 -9.273438 -0.882812 -9.539062 -0.75 -9.78125 C -0.625 -10.03125 -0.453125 -10.25 -0.234375 -10.4375 C -0.015625 -10.625 0.238281 -10.757812 0.53125 -10.84375 L 3.859375 -11.78125 C 3.921875 -11.800781 3.972656 -11.796875 4.015625 -11.765625 C 4.066406 -11.734375 4.101562 -11.691406 4.125 -11.640625 L 4.3125 -10.953125 C 4.351562 -10.804688 4.304688 -10.710938 4.171875 -10.671875 L 0.84375 -9.734375 C 0.5625 -9.648438 0.351562 -9.484375 0.21875 -9.234375 C 0.0820312 -8.984375 0.0546875 -8.71875 0.140625 -8.4375 L 0.5 -7.15625 C 0.582031 -6.875 0.75 -6.664062 1 -6.53125 C 1.25 -6.394531 1.515625 -6.367188 1.796875 -6.453125 L 7.46875 -8.0625 C 7.519531 -8.082031 7.566406 -8.070312 7.609375 -8.03125 C 7.660156 -8 7.691406 -7.960938 7.703125 -7.921875 L 7.90625 -7.234375 C 7.945312 -7.097656 7.90625 -7.007812 7.78125 -6.96875 L 7.125 -6.78125 L 8.3125 -2.578125 C 8.351562 -2.453125 8.304688 -2.375 8.171875 -2.34375 L 3.359375 -0.96875 C 3.066406 -0.882812 2.78125 -0.859375 2.5 -0.890625 C 2.21875 -0.929688 1.957031 -1.015625 1.71875 -1.140625 C 1.476562 -1.273438 1.265625 -1.457031 1.078125 -1.6875 C 0.890625 -1.914062 0.753906 -2.175781 0.671875 -2.46875 Z M 2.109375 -5.359375 C 1.828125 -5.273438 1.613281 -5.101562 1.46875 -4.84375 C 1.332031 -4.59375 1.304688 -4.328125 1.390625 -4.046875 L 1.75 -2.78125 C 1.832031 -2.5 2 -2.285156 2.25 -2.140625 C 2.5 -2.003906 2.765625 -1.976562 3.046875 -2.0625 L 6.96875 -3.171875 L 6.03125 -6.46875 Z M 2.109375 -5.359375 "/></g></g></g><g fill="#403029" fill-opacity="1"><g transform="translate(227.446397, 288.729137)"><g/></g></g><g fill="#403029" fill-opacity="1"><g transform="translate(241.456217, 281.879773)"><g><path d="M 1.03125 -0.921875 L -4.375 -9.15625 C -4.40625 -9.207031 -4.410156 -9.257812 -4.390625 -9.3125 C -4.378906 -9.375 -4.351562 -9.414062 -4.3125 -9.4375 L 0.140625 -12.359375 C 0.378906 -12.515625 0.640625 -12.617188 0.921875 -12.671875 C 1.210938 -12.722656 1.492188 -12.722656 1.765625 -12.671875 C 2.035156 -12.617188 2.289062 -12.507812 2.53125 -12.34375 C 2.78125 -12.1875 2.988281 -11.984375 3.15625 -11.734375 L 6.390625 -6.8125 C 6.554688 -6.5625 6.664062 -6.289062 6.71875 -6 C 6.769531 -5.707031 6.765625 -5.421875 6.703125 -5.140625 C 6.640625 -4.867188 6.523438 -4.613281 6.359375 -4.375 C 6.203125 -4.132812 6.003906 -3.9375 5.765625 -3.78125 L 1.3125 -0.859375 C 1.269531 -0.835938 1.21875 -0.832031 1.15625 -0.84375 C 1.101562 -0.851562 1.0625 -0.878906 1.03125 -0.921875 Z M 1.46875 -2.328125 L 5.140625 -4.734375 C 5.367188 -4.890625 5.515625 -5.109375 5.578125 -5.390625 C 5.648438 -5.679688 5.601562 -5.945312 5.4375 -6.1875 L 2.203125 -11.109375 C 2.046875 -11.359375 1.820312 -11.507812 1.53125 -11.5625 C 1.25 -11.613281 0.992188 -11.5625 0.765625 -11.40625 L -2.90625 -9 Z M 1.46875 -2.328125 "/></g></g></g><g fill="#403029" fill-opacity="1"><g transform="translate(254.286841, 272.989721)"><g><path d="M 1.0625 -1.234375 L -5.515625 -8.5625 C -5.609375 -8.664062 -5.609375 -8.765625 -5.515625 -8.859375 L -0.328125 -13.515625 C -0.210938 -13.609375 -0.109375 -13.601562 -0.015625 -13.5 L 0.453125 -12.96875 C 0.554688 -12.851562 0.550781 -12.75 0.4375 -12.65625 L -4.078125 -8.59375 L -1.796875 -6.0625 L 2.125 -9.578125 C 2.15625 -9.609375 2.203125 -9.617188 2.265625 -9.609375 C 2.335938 -9.609375 2.390625 -9.59375 2.421875 -9.5625 L 2.90625 -9.03125 C 2.945312 -8.976562 2.960938 -8.921875 2.953125 -8.859375 C 2.941406 -8.796875 2.921875 -8.75 2.890625 -8.71875 L -1.03125 -5.203125 L 1.25 -2.65625 L 5.765625 -6.71875 C 5.816406 -6.757812 5.875 -6.773438 5.9375 -6.765625 C 6 -6.765625 6.050781 -6.742188 6.09375 -6.703125 L 6.5625 -6.171875 C 6.65625 -6.066406 6.644531 -5.96875 6.53125 -5.875 L 1.34375 -1.21875 C 1.25 -1.125 1.15625 -1.128906 1.0625 -1.234375 Z M 1.0625 -1.234375 "/></g></g></g><g fill="#403029" fill-opacity="1"><g transform="translate(265.623481, 262.281904)"><g><path d="M 2.109375 -2.859375 L -3.25 -4.546875 C -3.300781 -4.566406 -3.363281 -4.59375 -3.4375 -4.625 C -3.519531 -4.65625 -3.582031 -4.691406 -3.625 -4.734375 L -6.90625 -7.4375 C -6.957031 -7.476562 -6.984375 -7.523438 -6.984375 -7.578125 C -6.984375 -7.640625 -6.96875 -7.691406 -6.9375 -7.734375 L -6.484375 -8.296875 C -6.390625 -8.398438 -6.285156 -8.410156 -6.171875 -8.328125 L -3.046875 -5.75 C -3.003906 -5.71875 -2.945312 -5.679688 -2.875 -5.640625 C -2.800781 -5.597656 -2.738281 -5.566406 -2.6875 -5.546875 L 1.90625 -4.09375 L 2.96875 -5.40625 L 0.65625 -9.640625 C 0.632812 -9.679688 0.597656 -9.734375 0.546875 -9.796875 C 0.492188 -9.859375 0.445312 -9.90625 0.40625 -9.9375 L -2.71875 -12.515625 C -2.832031 -12.597656 -2.847656 -12.691406 -2.765625 -12.796875 L -2.3125 -13.359375 C -2.21875 -13.472656 -2.113281 -13.488281 -2 -13.40625 L 1.28125 -10.703125 C 1.320312 -10.660156 1.367188 -10.609375 1.421875 -10.546875 C 1.472656 -10.492188 1.515625 -10.4375 1.546875 -10.375 L 4.25 -5.46875 C 4.269531 -5.425781 4.273438 -5.363281 4.265625 -5.28125 C 4.253906 -5.207031 4.234375 -5.148438 4.203125 -5.109375 L 2.421875 -2.9375 C 2.390625 -2.90625 2.335938 -2.878906 2.265625 -2.859375 C 2.203125 -2.835938 2.148438 -2.835938 2.109375 -2.859375 Z M 2.109375 -2.859375 "/></g></g></g><g fill="#403029" fill-opacity="1"><g transform="translate(275.22089, 249.990976)"><g><path d="M 0.65625 -1.484375 L -7.8125 -6.515625 C -7.925781 -6.585938 -7.953125 -6.6875 -7.890625 -6.8125 L -4.3125 -12.796875 C -4.238281 -12.921875 -4.144531 -12.945312 -4.03125 -12.875 L -3.421875 -12.515625 C -3.296875 -12.441406 -3.269531 -12.34375 -3.34375 -12.21875 L -6.453125 -7.015625 L -3.515625 -5.265625 L -0.828125 -9.78125 C -0.804688 -9.8125 -0.757812 -9.832031 -0.6875 -9.84375 C -0.625 -9.863281 -0.570312 -9.863281 -0.53125 -9.84375 L 0.078125 -9.484375 C 0.128906 -9.441406 0.160156 -9.390625 0.171875 -9.328125 C 0.179688 -9.265625 0.175781 -9.21875 0.15625 -9.1875 L -2.53125 -4.671875 L 0.40625 -2.921875 L 3.515625 -8.125 C 3.546875 -8.175781 3.59375 -8.207031 3.65625 -8.21875 C 3.71875 -8.238281 3.769531 -8.234375 3.8125 -8.203125 L 4.4375 -7.84375 C 4.550781 -7.769531 4.570312 -7.671875 4.5 -7.546875 L 0.921875 -1.5625 C 0.859375 -1.4375 0.769531 -1.410156 0.65625 -1.484375 Z M 0.65625 -1.484375 "/></g></g></g><g fill="#403029" fill-opacity="1"><g transform="translate(282.863632, 236.398818)"><g><path d="M -8.78125 -5.6875 L -8.5 -6.34375 C -8.445312 -6.476562 -8.359375 -6.519531 -8.234375 -6.46875 L 0.03125 -3.109375 L 2.234375 -8.53125 C 2.253906 -8.582031 2.296875 -8.617188 2.359375 -8.640625 C 2.421875 -8.671875 2.472656 -8.675781 2.515625 -8.65625 L 3.1875 -8.390625 C 3.3125 -8.335938 3.347656 -8.242188 3.296875 -8.109375 L 0.734375 -1.828125 C 0.722656 -1.785156 0.691406 -1.75 0.640625 -1.71875 C 0.585938 -1.695312 0.535156 -1.695312 0.484375 -1.71875 L -8.65625 -5.421875 C -8.707031 -5.453125 -8.742188 -5.492188 -8.765625 -5.546875 C -8.785156 -5.597656 -8.789062 -5.644531 -8.78125 -5.6875 Z M -8.78125 -5.6875 "/></g></g></g><g fill="#403029" fill-opacity="1"><g transform="translate(288.377154, 221.795118)"><g><path d="M 0.828125 -3.453125 C 0.753906 -3.160156 0.628906 -2.898438 0.453125 -2.671875 C 0.285156 -2.441406 0.0859375 -2.253906 -0.140625 -2.109375 C -0.367188 -1.960938 -0.628906 -1.863281 -0.921875 -1.8125 C -1.222656 -1.769531 -1.519531 -1.785156 -1.8125 -1.859375 L -7.546875 -3.21875 C -7.835938 -3.289062 -8.097656 -3.410156 -8.328125 -3.578125 C -8.554688 -3.753906 -8.742188 -3.960938 -8.890625 -4.203125 C -9.046875 -4.441406 -9.144531 -4.703125 -9.1875 -4.984375 C -9.238281 -5.265625 -9.226562 -5.550781 -9.15625 -5.84375 L -8.375 -9.09375 C -8.3125 -9.375 -8.191406 -9.628906 -8.015625 -9.859375 C -7.847656 -10.097656 -7.644531 -10.289062 -7.40625 -10.4375 C -7.164062 -10.59375 -6.898438 -10.691406 -6.609375 -10.734375 C -6.328125 -10.785156 -6.039062 -10.773438 -5.75 -10.703125 L -0.015625 -9.34375 C 0.273438 -9.269531 0.539062 -9.144531 0.78125 -8.96875 C 1.019531 -8.800781 1.207031 -8.59375 1.34375 -8.34375 C 1.488281 -8.101562 1.582031 -7.835938 1.625 -7.546875 C 1.675781 -7.265625 1.671875 -6.984375 1.609375 -6.703125 Z M -8.046875 -5.578125 C -8.117188 -5.296875 -8.078125 -5.03125 -7.921875 -4.78125 C -7.773438 -4.539062 -7.5625 -4.382812 -7.28125 -4.3125 L -1.546875 -2.953125 C -1.265625 -2.878906 -1 -2.914062 -0.75 -3.0625 C -0.507812 -3.21875 -0.351562 -3.4375 -0.28125 -3.71875 L 0.5 -6.96875 C 0.5625 -7.238281 0.515625 -7.5 0.359375 -7.75 C 0.210938 -8 0 -8.160156 -0.28125 -8.234375 L -6.015625 -9.59375 C -6.296875 -9.664062 -6.554688 -9.625 -6.796875 -9.46875 C -7.046875 -9.3125 -7.203125 -9.097656 -7.265625 -8.828125 Z M -8.046875 -5.578125 "/></g></g></g><g fill="#403029" fill-opacity="1"><g transform="translate(291.629464, 206.527825)"><g><path d="M -0.09375 -1.375 L -9.921875 -2.203125 C -9.984375 -2.203125 -10.03125 -2.226562 -10.0625 -2.28125 C -10.09375 -2.332031 -10.109375 -2.382812 -10.109375 -2.4375 L -9.65625 -7.71875 C -9.632812 -8.007812 -9.550781 -8.28125 -9.40625 -8.53125 C -9.269531 -8.789062 -9.09375 -9.015625 -8.875 -9.203125 C -8.664062 -9.390625 -8.421875 -9.53125 -8.140625 -9.625 C -7.867188 -9.71875 -7.582031 -9.75 -7.28125 -9.71875 L -5.953125 -9.609375 C -5.660156 -9.585938 -5.382812 -9.503906 -5.125 -9.359375 C -4.875 -9.222656 -4.65625 -9.046875 -4.46875 -8.828125 C -4.289062 -8.609375 -4.15625 -8.359375 -4.0625 -8.078125 C -3.976562 -7.804688 -3.945312 -7.523438 -3.96875 -7.234375 L -4.34375 -2.859375 L 0 -2.5 C 0.132812 -2.488281 0.195312 -2.414062 0.1875 -2.28125 L 0.125 -1.578125 C 0.125 -1.523438 0.0976562 -1.476562 0.046875 -1.4375 C 0.00390625 -1.394531 -0.0390625 -1.375 -0.09375 -1.375 Z M -5.484375 -2.96875 L -5.109375 -7.34375 C -5.085938 -7.625 -5.164062 -7.875 -5.34375 -8.09375 C -5.53125 -8.320312 -5.765625 -8.445312 -6.046875 -8.46875 L -7.375 -8.578125 C -7.664062 -8.609375 -7.921875 -8.523438 -8.140625 -8.328125 C -8.367188 -8.140625 -8.492188 -7.90625 -8.515625 -7.625 L -8.890625 -3.25 Z M -5.484375 -2.96875 "/></g></g></g><g fill="#403029" fill-opacity="1"><g transform="translate(292.541805, 190.942561)"><g><path d="M -0.3125 -1.59375 L -10.15625 -0.9375 C -10.289062 -0.925781 -10.363281 -0.988281 -10.375 -1.125 L -10.84375 -8.078125 C -10.851562 -8.222656 -10.789062 -8.300781 -10.65625 -8.3125 L -9.9375 -8.359375 C -9.789062 -8.367188 -9.710938 -8.300781 -9.703125 -8.15625 L -9.296875 -2.109375 L -5.875 -2.328125 L -6.21875 -7.578125 C -6.226562 -7.617188 -6.207031 -7.664062 -6.15625 -7.71875 C -6.113281 -7.769531 -6.070312 -7.796875 -6.03125 -7.796875 L -5.3125 -7.84375 C -5.25 -7.851562 -5.195312 -7.832031 -5.15625 -7.78125 C -5.113281 -7.738281 -5.085938 -7.695312 -5.078125 -7.65625 L -4.734375 -2.40625 L -1.328125 -2.640625 L -1.734375 -8.6875 C -1.734375 -8.75 -1.710938 -8.800781 -1.671875 -8.84375 C -1.628906 -8.894531 -1.582031 -8.921875 -1.53125 -8.921875 L -0.8125 -8.96875 C -0.675781 -8.976562 -0.601562 -8.910156 -0.59375 -8.765625 L -0.125 -1.8125 C -0.113281 -1.675781 -0.175781 -1.601562 -0.3125 -1.59375 Z M -0.3125 -1.59375 "/></g></g></g><g fill="#403029" fill-opacity="1"><g transform="translate(291.109783, 175.417067)"><g><path d="M -1.84375 -7.421875 L -5.6875 -4.578125 L -5 -1.453125 L -0.75 -2.390625 C -0.613281 -2.421875 -0.53125 -2.375 -0.5 -2.25 L -0.34375 -1.5625 C -0.3125 -1.414062 -0.363281 -1.328125 -0.5 -1.296875 L -10.125 0.828125 C -10.25 0.859375 -10.328125 0.800781 -10.359375 0.65625 L -11.5 -4.515625 C -11.570312 -4.796875 -11.582031 -5.078125 -11.53125 -5.359375 C -11.476562 -5.648438 -11.375 -5.914062 -11.21875 -6.15625 C -11.070312 -6.394531 -10.878906 -6.597656 -10.640625 -6.765625 C -10.410156 -6.929688 -10.148438 -7.046875 -9.859375 -7.109375 L -8.5625 -7.390625 C -8.082031 -7.503906 -7.617188 -7.457031 -7.171875 -7.25 C -6.734375 -7.050781 -6.398438 -6.734375 -6.171875 -6.296875 L -5.90625 -5.828125 L -2.109375 -8.625 C -2.078125 -8.664062 -2.035156 -8.679688 -1.984375 -8.671875 C -1.941406 -8.660156 -1.910156 -8.625 -1.890625 -8.5625 L -1.71875 -7.765625 C -1.707031 -7.703125 -1.710938 -7.632812 -1.734375 -7.5625 C -1.765625 -7.488281 -1.800781 -7.441406 -1.84375 -7.421875 Z M -6.109375 -1.203125 L -7.046875 -5.5 C -7.109375 -5.769531 -7.257812 -5.984375 -7.5 -6.140625 C -7.75 -6.304688 -8.019531 -6.351562 -8.3125 -6.28125 L -9.609375 -6 C -9.890625 -5.9375 -10.101562 -5.78125 -10.25 -5.53125 C -10.40625 -5.289062 -10.453125 -5.035156 -10.390625 -4.765625 L -9.453125 -0.46875 Z M -6.109375 -1.203125 "/></g></g></g><g clip-path="url(#9ab435b6ba)"><path fill="#403029" d="M 152.945312 189.914062 L 170.617188 207.585938 L 168.785156 209.417969 L 149.292969 189.914062 L 168.792969 170.410156 L 170.625 172.242188 Z M 194.394531 155.777344 L 196.832031 156.390625 L 182.199219 224.039062 L 179.765625 223.425781 Z M 207.800781 170.410156 L 227.304688 189.914062 L 207.800781 209.417969 L 205.96875 207.585938 L 223.640625 189.914062 L 205.96875 172.242188 Z M 207.800781 170.410156 " fill-opacity="1" fill-rule="nonzero"/></g></svg>